<svg width="128" height="128" viewBox="0 0 128 128" fill="none" xmlns="http://www.w3.org/2000/svg">
<rect width="128" height="128" rx="40" fill="url(#paint0_linear_17_6)"/>
<rect x="0.5" y="0.5" width="127" height="127" rx="39.5" stroke="white" stroke-opacity="0.2"/>
<g filter="url(#filter0_d_17_6)">
<path d="M38.232 70.3983C37.6225 70.4004 37.0249 70.2306 36.5086 69.9088C35.9923 69.5869 35.5786 69.1262 35.3155 68.5801C35.0524 68.034 34.9507 67.425 35.0223 66.8238C35.0938 66.2226 35.3356 65.6538 35.7196 65.1837L67.6075 32.5522C67.8467 32.278 68.1727 32.0927 68.5319 32.0267C68.8911 31.9607 69.2622 32.018 69.5843 32.1891C69.9065 32.3602 70.1604 32.635 70.3046 32.9684C70.4487 33.3018 70.4745 33.674 70.3776 34.0238L64.1933 53.2828C64.0109 53.7675 63.9497 54.289 64.0148 54.8024C64.0799 55.3158 64.2695 55.8059 64.5672 56.2306C64.8649 56.6553 65.2619 57.0019 65.7241 57.2407C66.1863 57.4795 66.7 57.6033 67.221 57.6017H89.768C90.3775 57.5996 90.9751 57.7694 91.4914 58.0912C92.0076 58.4131 92.4214 58.8738 92.6845 59.4199C92.9476 59.966 93.0493 60.575 92.9777 61.1762C92.9062 61.7774 92.6644 62.3462 92.2804 62.8163L60.3925 95.4478C60.1533 95.722 59.8273 95.9073 59.4681 95.9733C59.1089 96.0393 58.7378 95.982 58.4157 95.8109C58.0935 95.6398 57.8396 95.365 57.6954 95.0316C57.5513 94.6982 57.5255 94.326 57.6224 93.9762L63.8067 74.7172C63.9891 74.2325 64.0503 73.711 63.9852 73.1976C63.9201 72.6842 63.7305 72.1941 63.4328 71.7694C63.1351 71.3447 62.7381 70.9981 62.2759 70.7593C61.8137 70.5205 61.3 70.3967 60.779 70.3983H38.232Z" fill="white"/>
<path d="M38.232 70.3983C37.6225 70.4004 37.0249 70.2306 36.5086 69.9088C35.9923 69.5869 35.5786 69.1262 35.3155 68.5801C35.0524 68.034 34.9507 67.425 35.0223 66.8238C35.0938 66.2226 35.3356 65.6538 35.7196 65.1837L67.6075 32.5522C67.8467 32.278 68.1727 32.0927 68.5319 32.0267C68.8911 31.9607 69.2622 32.018 69.5843 32.1891C69.9065 32.3602 70.1604 32.635 70.3046 32.9684C70.4487 33.3018 70.4745 33.674 70.3776 34.0238L64.1933 53.2828C64.0109 53.7675 63.9497 54.289 64.0148 54.8024C64.0799 55.3158 64.2695 55.8059 64.5672 56.2306C64.8649 56.6553 65.2619 57.0019 65.7241 57.2407C66.1863 57.4795 66.7 57.6033 67.221 57.6017H89.768C90.3775 57.5996 90.9751 57.7694 91.4914 58.0912C92.0076 58.4131 92.4214 58.8738 92.6845 59.4199C92.9476 59.966 93.0493 60.575 92.9777 61.1762C92.9062 61.7774 92.6644 62.3462 92.2804 62.8163L60.3925 95.4478C60.1533 95.722 59.8273 95.9073 59.4681 95.9733C59.1089 96.0393 58.7378 95.982 58.4157 95.8109C58.0935 95.6398 57.8396 95.365 57.6954 95.0316C57.5513 94.6982 57.5255 94.326 57.6224 93.9762L63.8067 74.7172C63.9891 74.2325 64.0503 73.711 63.9852 73.1976C63.9201 72.6842 63.7305 72.1941 63.4328 71.7694C63.1351 71.3447 62.7381 70.9981 62.2759 70.7593C61.8137 70.5205 61.3 70.3967 60.779 70.3983H38.232Z" stroke="white" stroke-width="8" stroke-linecap="round" stroke-linejoin="round"/>
</g>
<defs>
<filter id="filter0_d_17_6" x="16" y="13" width="96" height="102" filterUnits="userSpaceOnUse" color-interpolation-filters="sRGB">
<feFlood flood-opacity="0" result="BackgroundImageFix"/>
<feColorMatrix in="SourceAlpha" type="matrix" values="0 0 0 0 0 0 0 0 0 0 0 0 0 0 0 0 0 0 127 0" result="hardAlpha"/>
<feOffset/>
<feGaussianBlur stdDeviation="7.5"/>
<feComposite in2="hardAlpha" operator="out"/>
<feColorMatrix type="matrix" values="0 0 0 0 1 0 0 0 0 1 0 0 0 0 1 0 0 0 0.8 0"/>
<feBlend mode="normal" in2="BackgroundImageFix" result="effect1_dropShadow_17_6"/>
<feBlend mode="normal" in="SourceGraphic" in2="effect1_dropShadow_17_6" result="shape"/>
</filter>
<linearGradient id="paint0_linear_17_6" x1="114" y1="117" x2="14" y2="10.5" gradientUnits="userSpaceOnUse">
<stop stop-color="#155DFC"/>
<stop offset="1" stop-color="#432DD7"/>
</linearGradient>
</defs>
</svg>
