<svg width="38" height="32" viewBox="0 0 38 32" fill="none" xmlns="http://www.w3.org/2000/svg">
  <path fill-rule="evenodd" clip-rule="evenodd"
    d="M32.4821 4.06063L27.9282 6.31047L5.93798 17.1718C5.86362 16.6218 5.8262 16.0677 5.82597 15.5131C5.82898 13.3 6.42817 11.1261 7.56419 9.20666C8.70023 7.28723 10.3337 5.68889 12.3027 4.56997C14.2718 3.45106 16.5081 2.85038 18.7902 2.82745C21.0724 2.80451 23.3211 3.36012 25.3136 4.43923L27.9202 3.15139L28.309 2.95899C25.9212 1.27841 23.1007 0.270754 20.1593 0.0473725C17.2179 -0.176009 14.27 0.393586 11.6415 1.6932C9.01305 2.99283 6.80635 4.97186 5.26524 7.41158C3.72414 9.85128 2.90868 12.6567 2.90898 15.5178C2.90898 15.9129 2.92445 16.3065 2.95539 16.6985C2.99871 17.2537 2.87173 17.8089 2.59044 18.2943C2.30913 18.7796 1.88607 19.1735 1.37449 19.4263L0 20.1059V23.2758L4.04666 21.2758L5.35714 20.6272L6.64842 19.9895L29.8307 8.53551L32.4357 7.2492L37.82 4.58818V1.41979L32.4821 4.06063ZM37.82 7.7611L7.9653 22.5014L5.36034 23.7908L0 26.4394V29.6063L5.32354 26.9763L9.87742 24.7264L31.89 13.8496C31.9644 14.4032 32.0019 14.9609 32.002 15.5192C32.0006 17.7348 31.4016 19.9115 30.2645 21.8333C29.1274 23.755 27.4917 25.355 25.5197 26.4743C23.5478 27.5936 21.3083 28.1932 19.0235 28.2138C16.7387 28.2343 14.4882 27.675 12.4952 26.5915L12.3352 26.6737L9.5094 28.0702C11.8967 29.7508 14.7165 30.7587 17.6575 30.9827C20.5985 31.2066 23.546 30.6378 26.1745 29.339C28.8029 28.0403 31.01 26.0622 32.5518 23.6233C34.0936 21.1845 34.91 18.3798 34.911 15.5192C34.911 15.1204 34.895 14.7216 34.8646 14.3275C34.8213 13.7725 34.9482 13.2175 35.2292 12.7322C35.5102 12.2469 35.9328 11.8529 36.4439 11.5998L37.82 10.9202V7.7611Z"
    fill="currentColor" />
</svg>
